<svg id="visual" viewBox="0 0 900 600" width="900" height="600" xmlns="http://www.w3.org/2000/svg" xmlns:xlink="http://www.w3.org/1999/xlink" version="1.1"><rect x="0" y="0" width="900" height="600" fill="#3a813e"></rect><path d="M0 282L37.5 301.5C75 321 150 360 225 357.7C300 355.3 375 311.7 450 290.7C525 269.7 600 271.3 675 293C750 314.7 825 356.3 862.5 377.2L900 398L900 601L862.5 601C825 601 750 601 675 601C600 601 525 601 450 601C375 601 300 601 225 601C150 601 75 601 37.5 601L0 601Z" fill="#0c2b06" stroke-linecap="round" stroke-linejoin="miter"></path></svg>