<?xml version="1.0" standalone="no"?>
<!DOCTYPE svg PUBLIC "-//W3C//DTD SVG 20010904//EN"
 "http://www.w3.org/TR/2001/REC-SVG-20010904/DTD/svg10.dtd">
<svg version="1.0" xmlns="http://www.w3.org/2000/svg"
 width="300.000000pt" height="247.000000pt" viewBox="0 0 300.000000 247.000000"
 preserveAspectRatio="xMidYMid meet">
<metadata>
Created by potrace 1.10, written by Peter Selinger 2001-2011
</metadata>
<g transform="translate(0.000000,247.000000) scale(0.100000,-0.100000)"
fill="#000000" stroke="none">
<path d="M6 2454 c-11 -28 -7 -264 4 -264 7 0 7 -7 0 -20 -7 -13 -10 -69 -8
-145 l2 -125 51 48 c27 26 52 48 54 50 2 1 1 5 -2 9 -4 3 -17 -3 -30 -15 -25
-24 -57 -29 -56 -9 0 13 92 87 109 87 6 0 23 11 37 25 15 13 30 22 33 18 3 -3
-1 -8 -7 -10 -7 -3 -13 -11 -13 -19 0 -20 28 -4 81 43 44 40 60 39 34 -1 -15
-22 -15 -26 -2 -26 14 0 27 -20 27 -41 0 -6 -9 -8 -19 -4 -15 4 -28 -5 -55
-41 -20 -26 -53 -59 -74 -72 -20 -14 -47 -34 -59 -45 -13 -11 -23 -16 -23 -11
0 5 21 28 47 51 39 33 46 44 36 54 -10 10 -13 10 -13 1 0 -7 -9 -12 -20 -12
-13 0 -18 -5 -14 -15 8 -19 -28 -49 -83 -71 l-43 -17 0 -233 c0 -129 4 -234 8
-234 4 0 8 -16 9 -35 1 -19 -2 -33 -7 -30 -4 2 -8 -99 -9 -226 -2 -223 -1
-232 18 -246 12 -8 24 -30 27 -54 4 -21 8 -39 9 -39 1 0 16 5 34 11 41 14 105
3 97 -17 -4 -10 3 -14 28 -14 19 0 42 -3 51 -6 11 -5 18 0 22 15 7 26 20 27
28 1 4 -12 -2 -36 -13 -57 -11 -21 -26 -53 -33 -72 -13 -36 -61 -91 -79 -91
-27 0 -4 -116 35 -174 10 -16 18 -42 17 -57 -2 -20 2 -29 13 -29 19 0 19 -10
0 -46 -13 -26 -13 -30 2 -42 23 -17 110 -15 195 4 58 13 100 15 217 9 180 -8
305 -7 334 4 12 5 49 4 82 -1 70 -10 224 -27 310 -34 33 -2 121 -9 194 -15 74
-5 141 -15 148 -21 18 -15 16 -36 -4 -41 -17 -4 -17 -5 0 -6 26 -2 20 -17 -13
-31 -16 -7 -27 -16 -24 -21 7 -12 54 -11 54 1 0 6 16 10 35 10 29 0 33 -3 28
-17 -5 -15 -4 -16 8 -7 8 6 43 14 79 18 73 8 139 30 187 62 17 12 51 24 74 28
23 4 50 11 61 17 16 9 17 13 7 26 -7 8 -18 24 -24 36 -14 28 -32 32 -39 10 -3
-10 -19 -24 -36 -30 -16 -6 -30 -18 -30 -27 0 -22 -20 -20 -47 6 -22 20 -24
21 -36 4 -11 -15 -13 -15 -15 10 -1 15 3 33 9 40 9 11 7 14 -9 14 -11 0 -22
-6 -25 -14 -8 -20 -47 -8 -47 15 0 26 -19 33 -39 15 -18 -16 -63 -23 -59 -8 3
8 -5 12 -27 12 -8 0 -15 -9 -15 -19 0 -27 -13 -33 -36 -16 -15 11 -17 16 -6
26 18 19 15 29 -8 29 -11 0 -20 7 -20 15 0 18 96 89 133 99 15 3 35 15 45 26
12 15 29 20 67 20 46 0 56 4 106 46 30 26 56 50 59 55 9 13 103 59 122 59 9 0
19 -4 23 -10 3 -5 14 -2 25 8 20 16 20 17 -2 25 -12 4 -33 5 -45 2 -30 -7 -30
11 -1 21 43 14 53 16 123 14 88 -1 105 -6 105 -31 0 -10 6 -19 13 -19 22 0 26
10 16 38 l-10 27 25 -24 c13 -13 22 -30 19 -37 -6 -16 25 -56 37 -49 4 3 2 22
-5 42 -7 21 -15 67 -18 103 -5 61 -5 63 8 35 8 -16 14 -39 15 -50 0 -11 9 -33
21 -50 14 -20 19 -24 15 -10 -14 57 -17 105 -7 105 11 0 32 -41 35 -70 1 -8 7
-25 14 -37 6 -12 9 -28 6 -36 -3 -8 0 -18 6 -22 6 -4 11 -1 9 6 -6 45 2 139
11 134 6 -4 8 -15 5 -25 -3 -10 -1 -21 5 -25 5 -3 7 -17 4 -31 -4 -14 -2 -24
5 -24 10 0 15 17 13 50 0 8 8 28 18 45 16 27 17 41 9 124 -10 108 -24 156 -56
192 -14 15 -23 38 -23 58 0 21 -4 30 -11 25 -6 -3 -9 -15 -6 -25 3 -11 1 -16
-4 -13 -6 3 -9 15 -7 27 2 14 -2 22 -12 22 -10 0 -15 -10 -15 -32 0 -25 -3
-30 -11 -20 -14 15 -24 116 -13 123 5 3 9 15 8 27 0 12 -3 16 -6 10 -6 -17
-23 -17 -23 0 0 21 -47 60 -64 54 -10 -4 -13 -1 -10 7 3 8 1 17 -5 21 -6 3
-11 14 -11 23 0 9 -4 23 -9 31 -8 12 -12 12 -26 -3 -19 -19 -13 -48 8 -40 9 3
16 -3 19 -18 4 -21 1 -24 -24 -20 -19 3 -34 14 -43 31 -7 15 -21 34 -31 42
-16 13 -16 12 -5 -8 9 -18 9 -23 -1 -23 -7 0 -21 -17 -30 -38 -16 -33 -16 -43
-4 -87 8 -28 18 -62 24 -76 10 -25 8 -27 -16 -32 -29 -6 -51 6 -33 17 14 9 14
61 0 87 -10 19 -12 20 -29 4 -18 -16 -18 -15 -15 17 2 18 7 43 10 56 5 13 3
22 -4 22 -6 0 -11 -12 -11 -27 0 -25 -1 -25 -19 -9 -10 9 -22 37 -26 61 -3 25
-10 47 -16 50 -5 4 -9 10 -9 16 0 13 34 11 48 -3 23 -23 23 0 0 24 -13 13 -29
33 -36 44 -9 13 -14 15 -18 7 -7 -16 -24 -17 -24 -2 0 6 -8 27 -17 46 -16 34
-16 36 3 50 16 12 20 11 31 -4 7 -9 13 -24 13 -34 0 -9 7 -22 15 -29 18 -15
19 -10 4 27 -6 15 -11 51 -10 80 0 29 -4 55 -9 58 -5 3 -7 12 -4 20 4 8 10 12
15 9 10 -6 12 9 2 19 -3 4 -11 -1 -18 -10 -11 -15 -14 -12 -30 20 -10 21 -18
49 -18 63 0 33 -16 39 -60 20 -31 -12 -35 -12 -30 0 3 8 9 14 14 14 16 0 10
38 -7 44 -9 4 -13 13 -10 24 4 11 -2 27 -13 38 -10 12 -22 35 -26 52 -4 19
-13 32 -22 32 -9 0 -13 6 -9 15 3 8 -2 22 -11 31 -14 13 -30 16 -88 11 -38 -3
-78 -9 -89 -13 -30 -12 -14 18 22 41 17 11 31 23 32 28 0 10 -50 -2 -77 -19
-32 -20 -46 -18 -31 5 9 15 8 22 -5 35 -8 9 -25 16 -36 16 -11 0 -23 5 -26 10
-9 14 -29 12 -75 -7 -25 -11 -39 -24 -38 -33 3 -17 -9 -40 -21 -40 -5 0 -6 11
-3 25 6 35 -14 55 -55 55 -35 0 -83 -36 -83 -61 0 -7 -6 -4 -14 6 -12 16 -14
17 -22 3 -7 -13 -32 -17 -124 -19 -63 -2 -125 0 -137 4 -20 7 -23 5 -23 -17 0
-13 -10 -37 -23 -53 -33 -41 -109 -199 -111 -230 0 -16 -9 -36 -18 -47 -12
-13 -15 -28 -11 -49 5 -24 3 -29 -9 -25 -33 13 -74 -74 -57 -121 9 -22 -7 -51
-29 -51 -5 0 -17 -9 -26 -19 -13 -14 -15 -24 -8 -38 15 -26 54 -60 79 -67 12
-4 34 -21 48 -38 23 -27 26 -37 20 -75 -6 -40 5 -58 20 -33 3 6 15 10 26 10
10 0 19 5 19 12 0 9 3 9 12 0 8 -8 4 -21 -17 -52 -16 -23 -32 -43 -37 -46 -5
-3 -29 4 -53 15 -25 12 -50 21 -57 22 -7 0 3 6 22 13 39 14 42 28 8 38 -46 13
-59 9 -70 -23 -8 -23 -13 -27 -19 -17 -5 7 -9 23 -9 34 0 15 -30 47 -92 100
-90 77 -93 79 -145 79 -49 -1 -52 1 -47 22 5 17 2 23 -11 23 -9 0 -16 -7 -14
-17 1 -10 1 -24 0 -30 -1 -15 -41 -18 -41 -3 0 19 -2 25 -12 38 -8 8 -7 12 3
12 8 0 20 9 26 19 17 28 -7 73 -52 97 -41 22 -45 34 -10 34 33 0 31 8 -10 49
-19 19 -33 36 -31 38 11 11 106 -45 136 -80 21 -26 45 -43 60 -44 14 -2 44 -6
68 -9 42 -6 43 -6 36 20 -4 16 -2 26 5 26 6 0 11 8 11 19 0 18 38 51 60 51 17
0 107 64 128 91 11 13 21 39 24 57 4 29 2 32 -16 26 -18 -6 -19 -5 -7 9 7 9
17 14 22 11 5 -3 9 -1 9 5 0 5 18 28 40 51 55 58 41 65 -17 9 -26 -24 -39 -33
-28 -19 40 52 78 89 87 84 4 -3 8 0 8 7 0 7 7 21 17 31 33 37 4 28 -38 -12
-67 -63 -76 -69 -44 -25 17 22 35 49 41 60 6 11 14 18 17 15 8 -7 76 60 93 92
7 14 20 32 27 40 7 7 22 26 32 42 17 26 22 28 59 21 61 -10 96 -7 123 10 13 9
33 13 44 10 12 -4 21 -1 25 10 4 8 18 22 32 29 l26 14 -49 15 -50 15 42 1 c33
1 41 4 37 16 -8 20 6 19 22 -2 13 -17 13 -17 14 0 0 9 -9 26 -20 37 -11 11
-20 24 -20 29 0 6 -74 10 -177 10 -153 0 -180 -2 -197 -17 -20 -16 -20 -16 -7
1 13 16 9 17 -59 17 -62 0 -77 -4 -111 -27 -24 -18 -39 -36 -39 -50 0 -12 -4
-25 -10 -28 -5 -3 -10 1 -10 9 0 9 -3 16 -6 16 -14 0 -60 -47 -57 -57 2 -6 -6
-14 -18 -18 -12 -4 -47 -27 -77 -52 -30 -24 -57 -42 -60 -39 -4 5 77 87 123
125 12 9 31 32 43 52 12 19 34 42 49 49 24 11 25 14 9 18 -10 2 -23 -1 -29 -7
-6 -6 -18 -11 -26 -11 -13 0 -14 2 -2 9 8 5 -82 9 -224 10 -214 0 -239 -1
-251 -17 -12 -16 -13 -16 -19 1 -6 15 -22 17 -115 17 -89 0 -109 -3 -114 -16z
m34 -13 c0 -12 -20 -25 -27 -18 -7 7 6 27 18 27 5 0 9 -4 9 -9z m585 -1 c-9
-15 -45 -32 -45 -22 0 5 10 14 23 20 29 14 29 14 22 2z m-268 -42 c-3 -7 -5
-2 -5 12 0 14 2 19 5 13 2 -7 2 -19 0 -25z m557 6 c-9 -14 -23 -23 -30 -20
-13 5 -44 -24 -44 -42 0 -15 33 -10 54 7 30 25 16 -1 -31 -55 -26 -30 -52 -54
-57 -54 -6 0 2 11 17 25 32 30 33 39 9 63 -18 16 -17 18 27 59 53 49 81 57 55
17z m366 6 c0 -5 -10 -10 -22 -9 -22 0 -22 1 -3 9 11 5 21 9 23 9 1 1 2 -3 2
-9z m-250 -10 c-20 -13 -33 -13 -25 0 3 6 14 10 23 10 15 0 15 -2 2 -10z
m-866 -34 c32 -29 32 -36 3 -36 -27 0 -62 33 -52 49 10 16 21 13 49 -13z m433
7 c-4 -3 -7 0 -7 7 0 7 3 10 7 7 3 -4 3 -10 0 -14z m428 -12 c-16 -16 -31 -27
-33 -26 -7 6 12 35 24 35 8 0 14 5 14 10 0 6 6 10 13 10 6 0 -1 -13 -18 -29z
m92 22 c-4 -3 -10 -3 -14 0 -3 4 0 7 7 7 7 0 10 -3 7 -7z m-327 -48 c0 -3 -6
-14 -12 -26 -11 -17 -10 -22 4 -33 15 -11 11 -18 -34 -70 -28 -32 -70 -66 -94
-78 -24 -11 -58 -36 -75 -56 -24 -27 -33 -32 -40 -21 -12 19 -11 37 1 19 9
-13 12 -13 21 2 5 10 28 38 49 64 22 25 40 52 40 60 0 8 5 14 11 14 14 0 48
41 49 59 0 29 80 94 80 66z m-625 -45 c3 -5 1 -10 -4 -10 -6 0 -11 5 -11 10 0
6 2 10 4 10 3 0 8 -4 11 -10z m870 0 c3 -5 -3 -10 -14 -10 -12 0 -21 5 -21 10
0 6 6 10 14 10 8 0 18 -4 21 -10z m-538 -17 c-4 -3 -10 -3 -14 0 -3 4 0 7 7 7
7 0 10 -3 7 -7z m-99 -21 c2 -7 -3 -12 -12 -12 -9 0 -16 7 -16 16 0 17 22 14
28 -4z m62 3 c7 -9 8 -15 2 -15 -5 0 -12 7 -16 15 -3 8 -4 15 -2 15 2 0 9 -7
16 -15z m-69 -45 c12 0 12 -2 -1 -10 -16 -10 -44 10 -62 45 -8 15 -3 13 19 -7
16 -16 36 -28 44 -28z m259 25 c0 -8 -4 -15 -9 -15 -5 0 -18 -3 -28 -7 -17 -6
-17 -5 1 15 22 26 36 28 36 7z m-410 -14 c14 -27 13 -31 -10 -31 -15 0 -20 7
-20 25 0 30 15 33 30 6z m656 -21 c8 0 14 7 14 15 0 8 7 15 15 15 8 0 15 -4
15 -9 0 -13 -236 -251 -249 -251 -6 0 -20 -9 -32 -21 -47 -47 -26 -3 53 113
55 80 90 123 101 122 10 -1 27 12 40 30 21 30 22 30 25 9 2 -13 10 -23 18 -23z
m-356 0 c0 -5 -7 -10 -15 -10 -8 0 -15 5 -15 10 0 6 7 10 15 10 8 0 15 -4 15
-10z m-452 -12 c-6 -16 -56 -53 -63 -46 -7 7 45 58 58 58 5 0 7 -5 5 -12z m43
-45 c-9 -16 -10 -14 -11 12 0 21 3 26 11 18 8 -8 8 -16 0 -30z m236 10 c-4 -3
-7 0 -7 7 0 7 3 10 7 7 3 -4 3 -10 0 -14z m83 3 c0 -2 -11 -11 -25 -20 -30
-20 -55 -11 -28 10 16 12 53 19 53 10z m-82 -36 c11 -14 33 -22 61 -25 53 -5
68 -17 77 -58 3 -18 15 -49 26 -70 29 -57 40 -89 28 -82 -6 3 -10 10 -10 15 0
16 -61 100 -81 110 -10 6 -19 9 -19 8 0 -2 14 -41 31 -88 46 -131 45 -122 18
-118 -21 3 -25 10 -32 63 -8 58 -27 100 -27 60 0 -16 -4 -13 -19 12 -11 17
-19 45 -19 61 1 32 -40 114 -54 106 -4 -3 0 -16 9 -30 13 -20 15 -40 9 -115
-4 -50 -9 -103 -12 -119 -5 -22 -2 -29 12 -33 18 -4 18 -4 -1 -12 -11 -4 -28
-15 -37 -23 -16 -13 -18 -13 -18 1 0 9 4 19 10 22 6 4 7 45 3 111 -5 79 -3
111 8 130 9 18 10 30 2 42 -7 12 -7 22 1 34 14 22 14 22 34 -2z m106 1 c13 -5
16 -10 8 -15 -11 -6 -52 9 -52 19 0 7 22 5 44 -4z m476 2 c-1 -5 -14 -24 -31
-43 -17 -20 -27 -26 -23 -15 7 18 44 65 51 65 2 0 3 -3 3 -7z m487 0 c-4 -3
-10 -3 -14 0 -3 4 0 7 7 7 7 0 10 -3 7 -7z m195 -15 c-7 -7 -12 -8 -12 -2 0 6
3 14 7 17 3 4 9 5 12 2 2 -3 -1 -11 -7 -17z m-1117 -8 c3 -5 1 -10 -4 -10 -6
0 -11 5 -11 10 0 6 2 10 4 10 3 0 8 -4 11 -10z m912 -17 c-4 -3 -7 0 -7 7 0 7
3 10 7 7 3 -4 3 -10 0 -14z m220 0 c-4 -3 -10 -3 -14 0 -3 4 0 7 7 7 7 0 10
-3 7 -7z m-39 -28 c0 -18 -6 -25 -20 -25 -14 0 -18 5 -14 16 3 9 6 20 6 25 0
5 6 9 14 9 8 0 14 -10 14 -25z m-752 -15 c13 0 24 -3 24 -8 0 -20 -68 -86
-106 -102 -23 -10 -51 -31 -60 -46 -15 -23 -19 -24 -24 -9 -4 12 8 32 38 64
24 25 55 64 69 86 15 22 28 34 31 27 2 -6 15 -12 28 -12z m399 0 c3 -5 2 -10
-4 -10 -5 0 -13 5 -16 10 -3 6 -2 10 4 10 5 0 13 -4 16 -10z m-674 -27 c13
-16 12 -17 -3 -4 -10 7 -18 15 -18 17 0 8 8 3 21 -13z m854 7 c3 -5 4 -10 1
-10 -3 0 -8 5 -11 10 -3 6 -4 10 -1 10 3 0 8 -4 11 -10z m-1145 -15 c0 -8 -4
-15 -10 -15 -5 0 -7 7 -4 15 4 8 8 15 10 15 2 0 4 -7 4 -15z m1335 5 c17 -7
24 -7 20 0 -10 16 5 12 38 -12 38 -27 46 -38 69 -103 10 -27 22 -58 28 -67 13
-23 13 -81 0 -73 -5 3 -10 20 -10 36 0 24 -4 30 -17 27 -13 -3 -17 -12 -16
-35 2 -20 -3 -33 -12 -37 -8 -3 -15 -15 -15 -27 0 -22 -1 -22 -20 -4 -16 14
-23 16 -32 7 -16 -16 -73 -15 -87 1 -8 10 -7 18 3 32 19 26 9 52 -25 64 -16 5
-29 15 -29 20 0 6 -11 11 -25 11 -14 0 -25 -4 -25 -10 0 -5 -7 -7 -15 -4 -11
4 -19 -3 -26 -26 -15 -43 -33 -24 -31 32 3 74 19 105 65 128 23 12 53 28 67
36 30 16 59 18 95 4z m-325 -38 c0 -4 -4 -12 -9 -17 -16 -17 -41 -117 -41
-166 0 -58 -34 -104 -81 -111 -36 -5 -36 -5 -1 115 15 52 29 77 56 102 20 18
36 39 36 47 0 15 19 38 32 38 4 0 8 -4 8 -8z m645 -39 c3 -16 10 -40 14 -55 5
-16 6 -28 3 -28 -11 1 -52 93 -46 102 10 16 24 7 29 -19z m-1198 -50 c-4 -3
-10 -3 -14 0 -3 4 0 7 7 7 7 0 10 -3 7 -7z m20 -43 c-15 -17 -24 -37 -21 -45
4 -9 0 -15 -9 -15 -8 0 -27 -14 -41 -31 -55 -65 -11 8 54 91 18 22 35 39 37
36 3 -3 -6 -19 -20 -36z m-737 6 c0 -3 -5 -8 -12 -12 -7 -4 -8 -3 -4 4 7 12
16 16 16 8z m760 -26 c-14 -10 -27 -17 -29 -14 -6 5 31 33 44 33 6 1 -1 -8
-15 -19z m-380 0 c0 -5 -2 -10 -4 -10 -3 0 -8 5 -11 10 -3 6 -1 10 4 10 6 0
11 -4 11 -10z m267 -17 c-4 -3 -10 -3 -14 0 -3 4 0 7 7 7 7 0 10 -3 7 -7z
m704 -44 c-9 -25 -8 -34 1 -41 9 -5 8 -8 -5 -8 -26 0 -31 24 -12 60 21 40 31
32 16 -11z m-851 10 c0 -11 -4 -17 -10 -14 -5 3 -10 13 -10 21 0 8 5 14 10 14
6 0 10 -9 10 -21z m1466 -55 c-9 -24 -24 -16 -28 16 -3 21 0 34 11 40 13 7 17
3 19 -16 2 -14 1 -32 -2 -40z m-1367 16 c-21 -39 -39 -59 -39 -43 0 10 49 83
55 83 3 0 -5 -18 -16 -40z m-324 10 c-3 -5 -13 -10 -21 -10 -8 0 -12 5 -9 10
3 6 13 10 21 10 8 0 12 -4 9 -10z m-25 -60 c0 -5 -4 -10 -10 -10 -5 0 -10 5
-10 10 0 6 5 10 10 10 6 0 10 -4 10 -10z m1754 -15 c3 -8 1 -15 -4 -15 -6 0
-10 7 -10 15 0 8 2 15 4 15 2 0 6 -7 10 -15z m126 -5 c0 -5 -4 -10 -9 -10 -6
0 -13 5 -16 10 -3 6 1 10 9 10 9 0 16 -4 16 -10z m-1580 -7 c0 -5 -4 -15 -10
-23 -11 -18 -25 -7 -17 15 6 15 27 21 27 8z m640 -77 c0 -3 -5 -8 -12 -12 -7
-4 -8 -3 -4 4 7 12 16 16 16 8z m190 -129 c19 3 49 4 65 3 17 0 70 -2 118 -4
48 -2 90 1 93 5 9 15 64 10 94 -8 23 -13 27 -20 19 -35 -12 -22 -29 -24 -29
-2 0 13 -5 12 -29 -5 -16 -12 -38 -21 -48 -21 -11 0 -23 -3 -27 -7 -3 -4 -17
-8 -29 -10 -12 -1 -39 -5 -60 -8 -21 -3 -46 -1 -56 4 -14 8 -27 3 -59 -25
l-41 -34 -3 27 c-2 23 -8 28 -30 28 -15 1 -36 9 -47 19 -14 13 -30 17 -48 13
-16 -2 -48 -2 -72 2 l-43 6 27 27 c30 30 59 36 125 27 25 -4 61 -4 80 -2z
m-1363 -34 c-4 -3 -7 0 -7 7 0 7 3 10 7 7 3 -4 3 -10 0 -14z m1833 -38 c-7 -8
-14 -15 -15 -15 -2 0 -5 7 -9 15 -4 10 1 15 16 15 17 0 18 -2 8 -15z m-1433
-114 c3 -13 0 -26 -7 -31 -10 -6 -9 -15 1 -44 11 -29 11 -41 1 -56 -22 -36
-15 -53 18 -46 26 5 32 2 40 -18 5 -13 14 -27 20 -31 16 -10 2 -24 -19 -18
-19 5 -76 -46 -149 -133 -27 -32 -34 -36 -42 -24 -11 16 -6 68 12 112 5 15 8
34 4 43 -8 22 -36 18 -36 -5 0 -11 -4 -20 -10 -20 -11 0 -12 6 -4 38 4 12 13
22 20 22 8 0 14 6 14 13 0 8 11 24 25 37 14 13 25 27 25 32 0 5 11 26 25 46
30 44 31 52 6 52 -33 0 -34 19 -2 47 24 21 29 32 25 57 -4 27 -3 26 11 -9 9
-22 19 -51 22 -64z m-357 29 c0 -5 -9 -10 -21 -10 -11 0 -17 5 -14 10 3 6 13
10 21 10 8 0 14 -4 14 -10z m1670 -10 c12 -13 63 -30 89 -30 36 0 172 -69 226
-114 48 -40 103 -145 115 -222 5 -30 12 -58 15 -63 3 -5 7 -34 10 -64 6 -57
-6 -81 -24 -50 -9 17 -10 17 -16 -2 -17 -47 -30 -75 -38 -75 -4 0 -13 12 -19
28 -9 21 -12 23 -15 10 -3 -10 -9 -18 -15 -18 -6 0 -7 8 -3 18 13 35 17 72 7
72 -5 0 -13 10 -16 23 -6 20 -7 21 -17 4 -12 -21 -46 -15 -67 12 -12 15 -14
15 -26 -1 -12 -17 -14 -17 -29 0 -13 14 -14 21 -5 30 9 9 9 12 0 12 -7 0 -12
7 -12 15 0 8 -4 15 -10 15 -5 0 -9 -25 -9 -56 1 -35 4 -52 10 -43 11 19 15 11
23 -50 l7 -54 -24 29 c-13 16 -27 46 -31 67 -10 56 -21 45 -22 -23 0 -33 -4
-63 -8 -68 -4 -4 -20 9 -35 27 l-28 35 -40 -40 c-59 -58 -93 -87 -93 -78 0 4
8 17 18 28 14 17 17 35 14 92 l-4 71 -41 -1 c-36 -1 -42 2 -47 24 -5 22 -7 23
-13 7 -4 -10 -7 -27 -7 -38 0 -10 -4 -19 -9 -19 -17 0 -30 27 -24 50 5 19 3
22 -10 17 -14 -5 -15 -2 -7 19 6 14 10 33 9 42 0 15 -1 14 -8 -2 -8 -21 -71
-51 -71 -34 0 14 -30 48 -42 48 -4 0 -8 -9 -8 -20 0 -19 -27 -40 -50 -40 -6 0
-18 17 -27 37 -13 32 -17 35 -27 21 -8 -10 -11 -58 -9 -147 2 -78 -1 -131 -6
-131 -6 0 -11 19 -13 43 l-4 42 -13 -47 c-8 -28 -19 -48 -27 -48 -16 0 -17 19
-6 70 5 23 4 43 -4 58 -16 32 -22 17 -19 -42 2 -27 0 -58 -4 -70 -7 -19 -9
-17 -16 14 -4 19 -16 46 -26 60 -10 14 -26 49 -35 79 -14 44 -15 63 -6 110 6
33 6 60 1 66 -6 6 -9 6 -9 0 0 -6 -5 -37 -10 -70 -6 -39 -6 -71 0 -95 15 -50
28 -180 18 -174 -4 3 -8 16 -8 28 0 13 -7 43 -15 66 -8 23 -15 55 -15 71 0 16
-4 29 -10 29 -5 0 -10 -9 -10 -20 0 -11 -4 -20 -10 -20 -12 0 -12 3 -1 32 4
13 11 43 15 67 6 39 5 43 -9 31 -13 -11 -15 -9 -15 13 0 26 -19 49 -21 25 -1
-25 -9 -62 -15 -67 -3 -3 -9 0 -13 7 -11 18 -32 12 -54 -15 -10 -13 -23 -23
-28 -23 -12 0 24 72 45 89 9 8 16 19 16 26 0 7 7 18 15 25 8 7 15 23 15 37 0
13 11 39 25 57 14 18 25 37 26 42 0 5 28 33 62 62 53 47 66 53 99 51 20 -2 40
0 44 4 13 12 34 8 34 -7 0 -22 19 -29 36 -15 11 9 20 10 32 2 9 -5 28 -8 42
-7 14 2 56 4 94 5 45 2 70 7 73 16 3 7 15 13 27 13 11 0 26 4 33 8 13 8 125
10 133 2z m610 -20 c0 -5 -4 -10 -10 -10 -5 0 -10 5 -10 10 0 6 5 10 10 10 6
0 10 -4 10 -10z m57 -37 c-4 -3 -7 0 -7 7 0 7 3 10 7 7 3 -4 3 -10 0 -14z
m-2247 -27 c0 -3 -7 -12 -16 -20 -23 -23 -40 -19 -19 4 16 18 35 26 35 16z
m670 -46 c0 -5 -11 -10 -25 -10 -14 0 -25 5 -25 10 0 6 11 10 25 10 14 0 25
-4 25 -10z m-638 -57 c30 -29 38 -29 38 -1 0 15 3 19 10 12 6 -6 6 -20 -2 -41
-10 -27 -17 -31 -43 -30 -16 1 -40 12 -53 25 -22 22 -90 33 -77 12 4 -6 11 -7
17 -4 7 4 8 2 4 -4 -15 -25 -86 2 -86 33 0 17 16 20 101 20 56 0 71 -4 91 -22z
m2206 -33 c13 -16 20 -30 17 -30 -15 0 -55 34 -55 46 0 22 15 16 38 -16z
m-2381 -37 c-4 -3 -7 0 -7 7 0 7 3 10 7 7 3 -4 3 -10 0 -14z m63 -23 c-8 -5
-18 -6 -24 -3 -5 4 -1 10 10 13 24 9 34 2 14 -10z m67 4 c-3 -3 -12 -4 -19 -1
-8 3 -5 6 6 6 11 1 17 -2 13 -5z m2321 -26 c15 -17 36 -43 46 -56 l19 -25 -21
12 c-18 9 -21 9 -16 -3 3 -8 12 -17 20 -20 8 -3 14 -10 14 -16 0 -6 -11 -3
-25 6 -17 11 -24 24 -22 42 1 14 -4 27 -11 30 -7 2 -21 12 -30 22 -9 9 -26 22
-37 28 -19 11 -18 11 8 12 20 0 36 -10 55 -32z m37 22 c-3 -5 -10 -10 -16 -10
-5 0 -9 5 -9 10 0 6 7 10 16 10 8 0 12 -4 9 -10z m-1690 -30 c9 -16 11 -30 6
-30 -11 0 -31 32 -31 49 0 19 9 12 25 -19z m1715 16 c0 -3 -4 -8 -10 -11 -5
-3 -10 -1 -10 4 0 6 5 11 10 11 6 0 10 -2 10 -4z m-1713 -84 c6 -4 17 -20 23
-36 9 -24 8 -27 -5 -23 -17 7 -45 -18 -45 -39 0 -9 5 -24 10 -34 16 -31 -6
-58 -44 -54 -17 1 -34 3 -38 3 -17 2 -37 61 -35 106 l2 49 55 17 c68 21 63 20
77 11z m1693 -53 c0 -6 -4 -7 -10 -4 -5 3 -10 11 -10 16 0 6 5 7 10 4 6 -3 10
-11 10 -16z m-983 -96 c-4 -3 -7 0 -7 7 0 7 3 10 7 7 3 -4 3 -10 0 -14z m533
-14 c0 -5 -4 -9 -10 -9 -5 0 -10 7 -10 16 0 8 5 12 10 9 6 -3 10 -10 10 -16z
m-497 -19 c-9 -16 -21 -30 -26 -30 -4 0 0 14 10 30 9 17 21 30 26 30 4 0 0
-13 -10 -30z m74 12 c1 -10 -7 -29 -18 -42 -14 -20 -19 -21 -19 -8 0 9 5 20
10 23 6 3 10 15 10 26 0 24 15 25 17 1z m-982 -32 c3 -5 1 -10 -4 -10 -6 0
-11 5 -11 10 0 6 2 10 4 10 3 0 8 -4 11 -10z m832 -37 c-4 -3 -7 0 -7 7 0 7 3
10 7 7 3 -4 3 -10 0 -14z m36 -34 c-10 -19 -19 -36 -21 -39 -2 -2 -7 1 -11 8
-5 9 2 24 17 42 32 37 38 33 15 -11z m217 37 c0 -3 -5 -8 -12 -12 -7 -4 -8 -3
-4 4 7 12 16 16 16 8z m335 -34 c0 -36 -52 -113 -71 -105 -16 6 -19 33 -4 33
6 0 10 7 10 15 0 9 7 31 14 50 19 44 51 48 51 7z m-775 -18 c0 -8 -4 -12 -10
-9 -5 3 -10 13 -10 21 0 8 5 12 10 9 6 -3 10 -13 10 -21z m547 19 c-4 -3 -10
-3 -14 0 -3 4 0 7 7 7 7 0 10 -3 7 -7z m-593 -19 c3 -8 2 -12 -4 -9 -6 3 -10
10 -10 16 0 14 7 11 14 -7z m716 6 c0 -5 -4 -10 -10 -10 -5 0 -10 5 -10 10 0
6 5 10 10 10 6 0 10 -4 10 -10z m-1183 -7 c-4 -3 -10 -3 -14 0 -3 4 0 7 7 7 7
0 10 -3 7 -7z m-78 -22 c20 -11 44 -22 54 -25 9 -3 17 -10 17 -16 0 -6 -4 -8
-10 -5 -14 9 -12 -5 5 -35 16 -29 20 -94 5 -85 -5 3 -10 14 -10 24 0 28 -62
79 -120 99 -41 14 -56 24 -58 40 -3 20 1 22 38 22 23 0 59 -9 79 -19z m760 -8
c0 -5 -9 -26 -19 -48 -14 -30 -19 -35 -19 -18 -1 12 4 25 9 28 6 3 10 15 10
26 0 10 5 19 10 19 6 0 10 -3 9 -7z m-987 -58 c5 -22 2 -25 -26 -26 -35 -2
-59 1 -65 7 -11 10 35 44 59 44 22 0 29 -6 32 -25z m1416 -11 c-3 -46 -18 -56
-18 -11 0 30 6 47 17 47 2 0 3 -16 1 -36z m-561 9 c-4 -3 -7 0 -7 7 0 7 3 10
7 7 3 -4 3 -10 0 -14z m-7 -35 c0 -16 -3 -19 -11 -11 -6 6 -8 16 -5 22 11 17
16 13 16 -11z m207 5 c-4 -3 -7 0 -7 7 0 7 3 10 7 7 3 -4 3 -10 0 -14z m223
-37 c0 -3 -5 -8 -12 -12 -7 -4 -8 -3 -4 4 7 12 16 16 16 8z m-243 -28 c-3 -8
-6 -5 -6 6 -1 11 2 17 5 13 3 -3 4 -12 1 -19z m-593 -86 c77 -21 67 -33 -22
-28 -95 6 -108 11 -91 33 13 15 38 14 113 -5z m76 -58 c0 -2 -9 -4 -20 -4 -11
0 -20 4 -20 9 0 5 9 7 20 4 11 -3 20 -7 20 -9z m726 -102 c-4 -3 -11 0 -16 8
-15 24 -11 33 6 15 9 -9 13 -19 10 -23z m107 21 c-13 -2 -33 -2 -45 0 -13 2
-3 4 22 4 25 0 35 -2 23 -4z"/>
<path d="M1570 1980 c-12 -8 -11 -10 8 -10 12 0 22 5 22 10 0 13 -11 13 -30 0z"/>
<path d="M1523 1973 c4 -3 10 -3 14 0 3 4 0 7 -7 7 -7 0 -10 -3 -7 -7z"/>
<path d="M1455 967 c-4 -10 -5 -21 -1 -24 10 -10 18 4 13 24 -4 17 -4 17 -12
0z"/>
<path d="M1587 923 c-4 -3 -7 -11 -7 -17 0 -6 5 -5 12 2 6 6 9 14 7 17 -3 3
-9 2 -12 -2z"/>
<path d="M1900 910 c0 -7 3 -10 7 -7 3 4 3 10 0 14 -4 3 -7 0 -7 -7z"/>
<path d="M1245 850 c4 -19 8 -45 10 -57 1 -13 5 -26 10 -30 4 -5 5 16 3 45 -3
29 -11 59 -18 65 -10 10 -11 5 -5 -23z"/>
<path d="M1745 860 c-3 -5 1 -10 9 -10 9 0 16 5 16 10 0 6 -4 10 -9 10 -6 0
-13 -4 -16 -10z"/>
<path d="M1726 804 c-9 -22 -8 -24 9 -18 8 4 15 12 15 20 0 19 -16 18 -24 -2z"/>
<path d="M1772 793 c1 -18 6 -33 10 -33 11 0 10 32 -2 50 -8 11 -10 7 -8 -17z"/>
<path d="M1811 803 c-1 -12 4 -25 9 -28 12 -7 12 2 0 30 -8 19 -9 19 -9 -2z"/>
<path d="M1160 770 c0 -7 3 -10 7 -7 3 4 3 10 0 14 -4 3 -7 0 -7 -7z"/>
<path d="M1710 710 c0 -5 5 -10 10 -10 6 0 10 5 10 10 0 6 -4 10 -10 10 -5 0
-10 -4 -10 -10z"/>
<path d="M1412 2463 c2 -5 12 -25 21 -46 l17 -37 23 21 c12 12 35 26 50 31 26
10 27 11 10 24 -19 14 -128 20 -121 7z"/>
<path d="M1588 2450 c18 -11 41 -20 51 -20 10 0 24 -7 32 -16 10 -12 23 -14
57 -9 40 6 43 5 38 -12 -5 -16 4 -23 56 -41 35 -12 82 -25 106 -28 31 -5 42
-11 38 -20 -3 -8 0 -14 7 -14 7 0 26 -13 43 -28 16 -16 46 -37 67 -47 37 -17
52 -39 20 -29 -12 4 -8 -3 10 -20 15 -14 32 -38 38 -53 l10 -28 19 25 c18 23
20 23 20 5 0 -11 -4 -26 -9 -34 -14 -23 9 -62 41 -68 19 -4 28 -12 28 -24 0
-27 15 -24 28 6 10 21 9 26 -8 35 -11 6 -20 18 -20 26 0 11 -6 13 -21 9 -20
-7 -20 -6 -5 24 9 16 16 35 16 41 0 6 11 23 25 38 21 22 27 25 35 12 5 -8 12
-11 16 -7 4 3 1 13 -6 22 -14 17 -75 21 -85 5 -4 -6 -10 -8 -15 -5 -5 3 -11
-3 -13 -12 -3 -11 -5 -7 -6 11 -1 20 -5 27 -15 23 -16 -6 34 72 59 93 8 7 15
17 15 23 0 6 -15 -3 -32 -20 -18 -17 -49 -39 -68 -48 -29 -15 -25 -8 28 40 34
31 62 63 62 71 0 21 -17 17 -23 -5 -6 -26 -107 -89 -107 -67 0 9 77 85 97 95
30 15 29 16 47 -29 9 -23 23 -43 31 -46 17 -7 185 37 185 48 0 4 -12 11 -27
14 -16 4 -31 11 -34 16 -3 5 -18 4 -33 -3 -23 -11 -29 -10 -36 1 -7 12 -11 12
-26 -1 -15 -12 -17 -12 -12 1 2 8 21 26 42 40 l39 25 -133 3 c-113 2 -136 0
-151 -14 -11 -10 -22 -14 -26 -10 -4 4 -1 11 7 16 10 6 -86 10 -260 10 l-275
0 33 -20z m459 3 c-4 -3 -10 -3 -14 0 -3 4 0 7 7 7 7 0 10 -3 7 -7z"/>
<path d="M2588 2403 c-20 -9 -36 -10 -48 -3 -20 10 -50 4 -50 -11 0 -15 73
-27 160 -25 47 1 105 -4 129 -11 24 -8 83 -16 132 -18 l89 -5 0 25 c0 17 -6
25 -17 26 -45 3 -80 2 -101 -5 -15 -5 -31 -2 -46 8 -18 11 -42 14 -95 11 -55
-3 -71 -1 -71 9 0 17 -41 16 -82 -1z"/>
<path d="M1510 2400 c0 -13 20 -13 40 0 12 8 9 10 -12 10 -16 0 -28 -4 -28
-10z"/>
<path d="M1610 2400 c20 -13 40 -13 40 0 0 6 -12 10 -27 10 -22 0 -25 -2 -13
-10z"/>
<path d="M2290 2259 c0 -6 -7 -9 -15 -5 -8 3 -15 1 -15 -4 0 -13 46 -24 60
-15 8 5 8 11 -1 21 -14 17 -29 18 -29 3z"/>
<path d="M1416 2251 c-4 -7 -5 -15 -2 -18 9 -9 19 4 14 18 -4 11 -6 11 -12 0z"/>
<path d="M2330 2222 c0 -4 6 -17 14 -27 10 -14 28 -20 69 -22 57 -2 79 9 58
30 -7 7 -24 13 -39 13 -15 1 -44 5 -64 8 -21 3 -38 3 -38 -2z"/>
<path d="M1813 2192 c-24 -2 -33 -8 -33 -21 0 -17 3 -18 42 -4 24 8 44 16 46
18 6 6 -25 10 -55 7z"/>
<path d="M2484 2179 c-8 -14 14 -29 43 -29 35 0 36 17 1 29 -38 13 -35 13 -44
0z"/>
<path d="M2355 2140 c3 -5 11 -10 16 -10 6 0 7 5 4 10 -3 6 -11 10 -16 10 -6
0 -7 -4 -4 -10z"/>
<path d="M2585 2140 c28 -12 55 -12 55 0 0 6 -17 10 -37 9 -31 0 -34 -2 -18
-9z"/>
<path d="M2321 2127 c-12 -15 -5 -47 9 -47 5 0 12 9 15 21 9 27 -8 45 -24 26z"/>
<path d="M2374 2104 c-16 -24 -16 -26 5 -40 29 -21 26 -34 -8 -34 -25 0 -28 3
-24 23 3 15 2 18 -4 9 -5 -7 -17 -10 -26 -6 -25 9 -21 -9 7 -29 20 -16 24 -25
19 -54 -5 -31 -4 -35 13 -31 10 2 18 9 17 15 -1 6 9 23 23 38 20 22 27 25 40
14 18 -15 20 -13 26 31 5 32 3 36 -28 51 -24 12 -36 13 -45 5 -9 -8 -9 -6 0
12 16 30 5 28 -15 -4z"/>
<path d="M2660 2114 c0 -8 5 -12 10 -9 6 3 10 10 10 16 0 5 -4 9 -10 9 -5 0
-10 -7 -10 -16z"/>
<path d="M2274 2078 c-4 -7 -3 -8 4 -4 12 7 16 16 8 16 -3 0 -8 -5 -12 -12z"/>
<path d="M160 2060 c0 -7 3 -10 7 -7 3 4 3 10 0 14 -4 3 -7 0 -7 -7z"/>
<path d="M2488 2039 c17 -18 15 -26 -9 -32 -11 -3 -23 -15 -26 -26 -7 -26 -31
-35 -51 -19 -13 11 -15 10 -10 -4 4 -9 1 -36 -7 -61 -7 -25 -11 -48 -8 -51 10
-10 32 14 27 28 -3 8 4 16 16 19 17 4 20 10 15 28 -5 15 -4 19 5 14 7 -4 16
-1 21 6 6 9 7 4 3 -16 -4 -16 -16 -40 -26 -52 -11 -12 -17 -27 -13 -33 4 -7
13 -2 26 14 10 13 19 27 19 29 0 3 5 18 11 34 15 40 29 11 16 -33 -9 -28 -7
-37 9 -55 19 -22 19 -22 -3 -17 -14 4 -24 0 -28 -10 -6 -17 -6 -18 20 -26 16
-4 25 1 38 24 10 16 27 35 38 41 16 8 38 44 43 69 1 3 5 11 9 18 11 16 -2 35
-19 28 -8 -3 -14 1 -14 8 0 8 -7 16 -15 20 -9 3 -15 0 -15 -9 0 -35 -43 7 -51
50 -2 10 -11 20 -19 23 -12 4 -13 2 -2 -9z m-68 -129 c0 -5 -4 -10 -10 -10 -5
0 -10 5 -10 10 0 6 5 10 10 10 6 0 10 -4 10 -10z"/>
<path d="M2846 1974 c-4 -9 -4 -19 -1 -22 2 -3 8 3 11 12 5 14 9 15 15 5 4 -8
11 -10 16 -6 4 5 1 12 -7 17 -21 14 -27 12 -34 -6z"/>
<path d="M2917 1972 c-10 -11 -15 -26 -12 -35 8 -18 46 -30 59 -17 4 4 16 6
25 3 14 -4 14 -3 1 6 -8 6 -23 11 -32 11 -22 0 -34 20 -18 30 15 9 41 2 53
-14 5 -7 7 -3 5 9 -4 28 -58 33 -81 7z"/>
<path d="M2296 1952 c-3 -6 -1 -22 5 -35 8 -18 17 -23 31 -19 11 3 24 -1 29
-9 6 -10 8 -7 6 9 0 12 -6 22 -11 22 -5 0 -20 9 -32 21 -13 12 -24 16 -28 11z"/>
<path d="M2700 1947 c0 -20 22 -27 64 -20 42 7 48 23 9 23 -16 0 -38 3 -50 6
-17 5 -23 2 -23 -9z"/>
<path d="M2665 1940 c-3 -5 -1 -10 4 -10 6 0 11 5 11 10 0 6 -2 10 -4 10 -3 0
-8 -4 -11 -10z"/>
<path d="M2610 1830 c0 -5 5 -10 11 -10 5 0 7 5 4 10 -3 6 -8 10 -11 10 -2 0
-4 -4 -4 -10z"/>
<path d="M2555 1810 c-3 -5 -2 -10 4 -10 5 0 13 5 16 10 3 6 2 10 -4 10 -5 0
-13 -4 -16 -10z"/>
<path d="M2526 1763 c-12 -12 -6 -22 9 -17 10 4 15 0 15 -11 0 -9 5 -13 10
-10 17 11 11 41 -9 42 -10 1 -22 -1 -25 -4z"/>
<path d="M2594 1745 c-9 -22 1 -29 15 -11 8 10 9 16 1 21 -5 3 -13 -1 -16 -10z"/>
<path d="M2684 1728 c-4 -7 -3 -8 4 -4 12 7 16 16 8 16 -3 0 -8 -5 -12 -12z"/>
<path d="M2230 1713 c0 -5 7 -17 15 -27 15 -20 20 -10 9 18 -6 16 -24 22 -24
9z"/>
<path d="M2983 1673 c4 -3 10 -3 14 0 3 4 0 7 -7 7 -7 0 -10 -3 -7 -7z"/>
<path d="M2870 1639 c0 -5 5 -7 10 -4 6 3 10 8 10 11 0 2 -4 4 -10 4 -5 0 -10
-5 -10 -11z"/>
<path d="M2653 1613 c4 -3 10 -3 14 0 3 4 0 7 -7 7 -7 0 -10 -3 -7 -7z"/>
<path d="M2973 1593 c4 -3 10 -3 14 0 3 4 0 7 -7 7 -7 0 -10 -3 -7 -7z"/>
<path d="M2340 1580 c0 -5 5 -10 11 -10 5 0 7 5 4 10 -3 6 -8 10 -11 10 -2 0
-4 -4 -4 -10z"/>
<path d="M2693 1583 c4 -3 10 -3 14 0 3 4 0 7 -7 7 -7 0 -10 -3 -7 -7z"/>
<path d="M2918 1583 c7 -3 16 -2 19 1 4 3 -2 6 -13 5 -11 0 -14 -3 -6 -6z"/>
<path d="M775 1545 c-10 -22 -20 -43 -22 -47 -6 -11 36 4 48 18 7 9 8 22 2 41
l-10 28 -18 -40z"/>
<path d="M2870 1570 c0 -7 3 -10 7 -7 3 4 3 10 0 14 -4 3 -7 0 -7 -7z"/>
<path d="M2935 1561 c-11 -5 -26 -6 -32 -4 -7 3 -13 1 -13 -5 0 -5 7 -13 16
-16 17 -7 54 10 54 24 0 6 -1 10 -2 9 -2 0 -12 -4 -23 -8z"/>
<path d="M2800 1524 c-14 -7 -33 -14 -43 -14 -10 0 -15 -5 -12 -10 4 -6 1 -17
-5 -25 -10 -13 -8 -15 14 -15 15 0 26 6 26 14 0 17 41 44 58 39 6 -3 12 -10
12 -18 0 -7 7 -19 17 -26 15 -13 15 -12 5 8 -16 29 -15 33 6 33 13 1 11 4 -8
15 -30 17 -38 17 -70 -1z"/>
<path d="M2923 1513 c4 -3 10 -3 14 0 3 4 0 7 -7 7 -7 0 -10 -3 -7 -7z"/>
<path d="M2991 1504 c0 -11 3 -14 6 -6 3 7 2 16 -1 19 -3 4 -6 -2 -5 -13z"/>
<path d="M2890 1480 c0 -5 4 -10 9 -10 6 0 13 5 16 10 3 6 -1 10 -9 10 -9 0
-16 -4 -16 -10z"/>
<path d="M2954 1456 c-3 -8 -18 -18 -34 -21 -24 -5 -28 -11 -28 -36 1 -16 8
-35 16 -42 13 -10 15 -9 9 5 -9 25 14 34 30 13 7 -11 13 -13 13 -7 0 7 4 12
10 12 5 0 9 -10 7 -21 -1 -12 3 -23 8 -26 6 -2 11 16 13 42 1 41 -1 45 -21 45
-12 0 -29 -4 -37 -9 -8 -6 -18 -7 -23 -4 -10 6 38 33 59 33 8 0 14 7 14 15 0
19 -29 20 -36 1z"/>
<path d="M766 1407 c3 -10 9 -15 12 -12 3 3 0 11 -7 18 -10 9 -11 8 -5 -6z"/>
<path d="M2852 1408 c3 -7 13 -15 24 -17 16 -3 17 -1 5 13 -16 19 -34 21 -29
4z"/>
<path d="M2850 1340 c0 -7 3 -10 7 -7 3 4 3 10 0 14 -4 3 -7 0 -7 -7z"/>
<path d="M2935 1340 c4 -6 11 -8 16 -5 14 9 11 15 -7 15 -8 0 -12 -5 -9 -10z"/>
<path d="M2883 1333 c4 -3 10 -3 14 0 3 4 0 7 -7 7 -7 0 -10 -3 -7 -7z"/>
<path d="M2904 1311 c-2 -2 3 -12 12 -22 13 -14 13 -20 2 -38 -7 -12 -16 -21
-20 -21 -5 0 -8 -7 -8 -15 0 -8 -7 -15 -15 -15 -18 0 -20 -16 -3 -26 6 -4 17
1 24 10 7 10 18 15 24 11 6 -4 18 -1 27 7 14 11 16 11 9 -2 -6 -10 -2 -9 10 3
18 17 18 19 2 28 -25 14 -22 28 7 35 14 3 22 10 19 15 -3 5 -16 6 -30 3 -14
-4 -24 -2 -24 5 0 6 5 11 10 11 6 0 10 4 10 9 0 9 -47 10 -56 2z"/>
<path d="M793 1298 c-7 -8 -8 -19 -3 -28 8 -12 10 -12 15 2 10 26 2 43 -12 26z"/>
<path d="M2670 1196 c0 -8 5 -27 10 -42 6 -15 11 -42 12 -60 1 -23 7 -36 20
-40 17 -5 23 -20 20 -56 -1 -12 5 -18 17 -18 11 0 22 -6 24 -12 8 -18 27 10
27 39 0 12 5 25 10 28 6 3 10 0 10 -8 0 -18 21 -27 47 -21 10 3 39 -2 63 -10
61 -21 70 -20 70 9 0 15 -6 25 -14 25 -17 0 -31 18 -22 27 3 3 12 0 21 -7 10
-8 15 -9 15 -1 0 6 -4 11 -10 11 -5 0 -10 9 -10 20 0 14 -5 18 -17 13 -16 -6
-16 -5 0 17 21 30 21 36 1 44 -11 4 -15 2 -11 -7 3 -8 -7 -18 -25 -26 -24 -11
-34 -11 -54 -1 -28 16 -42 7 -24 -15 10 -12 10 -15 -4 -15 -9 0 -16 5 -16 10
0 6 -4 10 -10 10 -5 0 -10 -9 -10 -20 0 -11 -4 -20 -10 -20 -5 0 -10 5 -10 11
0 5 -4 8 -9 4 -5 -3 -12 3 -16 14 -3 10 -13 28 -23 39 -9 11 -26 32 -36 46
-21 29 -36 34 -36 12z"/>
<path d="M2825 1180 c3 -5 8 -10 11 -10 3 0 2 5 -1 10 -3 6 -8 10 -11 10 -3 0
-2 -4 1 -10z"/>
<path d="M2913 1163 c4 -3 10 -3 14 0 3 4 0 7 -7 7 -7 0 -10 -3 -7 -7z"/>
<path d="M2780 909 c0 -24 23 -21 28 4 2 10 -3 17 -12 17 -10 0 -16 -9 -16
-21z"/>
<path d="M2808 873 c-21 -5 -24 -19 -5 -26 9 -3 9 -8 -2 -21 -11 -13 -11 -20
-3 -28 9 -9 12 -7 12 10 0 12 6 21 13 20 7 -2 13 9 15 25 3 27 1 28 -30 20z"/>
<path d="M2870 845 c0 -8 8 -15 19 -15 22 0 55 -46 44 -63 -4 -8 -1 -8 10 1
11 9 13 18 6 25 -5 7 -18 24 -30 40 -22 29 -49 36 -49 12z"/>
<path d="M2975 850 c3 -5 10 -10 16 -10 5 0 9 5 9 10 0 6 -7 10 -16 10 -8 0
-12 -4 -9 -10z"/>
<path d="M2940 840 c0 -5 5 -10 10 -10 6 0 10 5 10 10 0 6 -4 10 -10 10 -5 0
-10 -4 -10 -10z"/>
<path d="M2836 804 c-4 -10 -1 -14 6 -12 15 5 23 28 10 28 -5 0 -13 -7 -16
-16z"/>
<path d="M0 768 c0 -21 5 -38 10 -38 13 0 13 40 0 60 -7 11 -10 5 -10 -22z"/>
<path d="M2780 749 c0 -31 25 -67 38 -54 4 4 1 10 -5 12 -7 3 -13 20 -13 39 0
19 -4 34 -10 34 -5 0 -10 -14 -10 -31z"/>
<path d="M2824 748 c-4 -7 -3 -8 4 -4 12 7 16 16 8 16 -3 0 -8 -5 -12 -12z"/>
<path d="M22 726 c-18 -20 -22 -35 -22 -90 l0 -66 25 16 c18 11 25 13 25 4 0
-8 10 -10 33 -6 22 4 40 1 55 -10 13 -9 24 -14 25 -13 1 2 12 18 25 36 29 42
28 49 -5 56 -16 3 -36 9 -45 12 -14 6 -18 2 -18 -15 0 -11 -4 -18 -10 -15 -5
3 -10 16 -10 29 0 12 -5 27 -11 33 -8 8 -8 13 0 17 6 4 11 14 11 22 0 23 -52
17 -78 -10z m23 -26 c-3 -5 -14 -10 -23 -10 -15 0 -15 2 -2 10 20 13 33 13 25
0z"/>
<path d="M2830 720 c0 -7 3 -10 7 -7 3 4 3 10 0 14 -4 3 -7 0 -7 -7z"/>
<path d="M2863 723 c4 -3 10 -3 14 0 3 4 0 7 -7 7 -7 0 -10 -3 -7 -7z"/>
<path d="M2980 687 c0 -14 4 -28 9 -32 5 -3 8 6 7 20 -4 35 -16 44 -16 12z"/>
<path d="M2840 675 c0 -5 5 -17 10 -25 5 -8 10 -10 10 -5 0 6 -5 17 -10 25 -5
8 -10 11 -10 5z"/>
<path d="M2970 629 c12 -16 25 -28 27 -25 8 8 -25 56 -38 56 -6 0 -1 -14 11
-31z"/>
<path d="M2740 610 c0 -7 3 -10 7 -7 3 4 3 10 0 14 -4 3 -7 0 -7 -7z"/>
<path d="M2782 609 c2 -6 8 -10 13 -10 5 0 11 4 13 10 2 6 -4 11 -13 11 -9 0
-15 -5 -13 -11z"/>
<path d="M2823 593 c4 -3 10 -3 14 0 3 4 0 7 -7 7 -7 0 -10 -3 -7 -7z"/>
<path d="M2910 591 c0 -5 7 -11 15 -15 8 -3 15 -1 15 3 0 5 -7 11 -15 15 -8 3
-15 1 -15 -3z"/>
<path d="M2850 550 c6 -11 13 -20 15 -20 3 0 5 9 5 20 0 11 -7 20 -15 20 -13
0 -14 -4 -5 -20z"/>
<path d="M2820 510 c0 -5 5 -10 10 -10 6 0 10 5 10 10 0 6 -4 10 -10 10 -5 0
-10 -4 -10 -10z"/>
<path d="M2731 494 c0 -11 3 -14 6 -6 3 7 2 16 -1 19 -3 4 -6 -2 -5 -13z"/>
<path d="M2845 470 c3 -5 8 -10 11 -10 2 0 4 5 4 10 0 6 -5 10 -11 10 -5 0 -7
-4 -4 -10z"/>
<path d="M2891 463 c8 -13 20 -23 27 -23 7 0 11 4 8 9 -4 5 -3 11 1 14 5 2 2
2 -6 0 -7 -2 -20 2 -29 9 -14 12 -14 11 -1 -9z"/>
<path d="M2870 440 c0 -5 5 -10 10 -10 6 0 10 5 10 10 0 6 -4 10 -10 10 -5 0
-10 -4 -10 -10z"/>
<path d="M2914 404 c11 -8 25 -14 32 -14 6 0 14 -7 18 -15 9 -25 36 -18 36 10
0 19 -5 25 -22 26 -13 1 -36 3 -53 5 -28 3 -29 2 -11 -12z"/>
<path d="M2843 393 c4 -3 10 -3 14 0 3 4 0 7 -7 7 -7 0 -10 -3 -7 -7z"/>
<path d="M2860 372 c0 -4 10 -13 21 -21 16 -9 24 -10 29 -2 9 16 34 5 45 -21
6 -12 16 -24 23 -26 11 -3 11 0 0 19 -14 26 -47 59 -58 59 -3 0 -11 -5 -17
-11 -8 -8 -13 -8 -17 0 -8 13 -26 15 -26 3z"/>
<path d="M2321 322 c0 -12 -6 -31 -13 -42 -16 -25 -11 -29 46 -36 l47 -7 -7
29 c-8 32 -34 75 -34 56 0 -19 -28 -14 -33 6 -4 13 -5 11 -6 -6z"/>
<path d="M2906 314 c-17 -12 -17 -14 -4 -14 9 0 20 5 23 11 11 17 2 18 -19 3z"/>
<path d="M2840 305 c0 -8 2 -15 4 -15 2 0 6 7 10 15 3 8 1 15 -4 15 -6 0 -10
-7 -10 -15z"/>
<path d="M2625 296 c-18 -13 -17 -14 8 -30 15 -10 24 -23 20 -32 -3 -10 2 -14
18 -13 13 0 18 3 12 6 -20 8 -15 25 6 18 10 -3 24 1 31 10 10 12 10 15 -3 15
-9 0 -21 9 -27 20 -12 23 -38 26 -65 6z"/>
<path d="M2252 268 c-18 -18 -15 -51 8 -75 16 -18 25 -20 55 -13 52 12 55 20
9 20 -35 0 -40 3 -42 26 -3 40 -15 57 -30 42z"/>
<path d="M2410 260 c0 -7 3 -10 7 -7 3 4 3 10 0 14 -4 3 -7 0 -7 -7z"/>
<path d="M2540 220 c-9 -6 -10 -10 -3 -10 6 0 15 5 18 10 8 12 4 12 -15 0z"/>
<path d="M2373 63 c4 -3 10 -3 14 0 3 4 0 7 -7 7 -7 0 -10 -3 -7 -7z"/>
<path d="M2646 54 c-4 -10 -1 -14 6 -12 15 5 23 28 10 28 -5 0 -13 -7 -16 -16z"/>
<path d="M2085 50 c-3 -5 3 -10 14 -10 12 0 21 5 21 10 0 6 -6 10 -14 10 -8 0
-18 -4 -21 -10z"/>
<path d="M2522 53 c-6 -2 -10 -8 -7 -13 6 -10 45 -1 45 11 0 10 -17 11 -38 2z"/>
<path d="M2190 40 c0 -5 5 -10 11 -10 5 0 7 5 4 10 -3 6 -8 10 -11 10 -2 0 -4
-4 -4 -10z"/>
<path d="M1895 30 c-3 -5 -1 -10 4 -10 6 0 11 5 11 10 0 6 -2 10 -4 10 -3 0
-8 -4 -11 -10z"/>
<path d="M2230 25 c-20 -24 -6 -28 15 -5 10 11 13 20 8 20 -6 0 -16 -7 -23
-15z"/>
<path d="M2275 30 c-3 -5 1 -10 10 -10 9 0 13 5 10 10 -3 6 -8 10 -10 10 -2 0
-7 -4 -10 -10z"/>
<path d="M1940 20 c0 -7 7 -9 16 -6 9 4 23 1 32 -6 13 -11 14 -10 10 2 -6 18
-58 27 -58 10z"/>
<path d="M2120 10 c0 -7 3 -10 7 -7 3 4 3 10 0 14 -4 3 -7 0 -7 -7z"/>
<path d="M2170 10 c-13 -8 -12 -10 3 -10 9 0 17 5 17 10 0 12 -1 12 -20 0z"/>
<path d="M2326 9 c6 -11 54 -12 54 -1 0 4 -13 7 -30 8 -16 1 -27 -3 -24 -7z"/>
<path d="M2523 3 c9 -2 25 -2 35 0 9 3 1 5 -18 5 -19 0 -27 -2 -17 -5z"/>
<path d="M2593 3 c4 -3 10 -3 14 0 3 4 0 7 -7 7 -7 0 -10 -3 -7 -7z"/>
</g>
</svg>
